<mxfile host="app.diagrams.net" modified="2022-04-12T15:45:29.426Z" agent="5.0 (Macintosh; Intel Mac OS X 10_15_7) AppleWebKit/537.36 (KHTML, like Gecko) Chrome/100.0.4896.75 Safari/537.36" etag="81TFHoXhHyvsVKh06RQo" version="17.4.3" type="github">
  <diagram id="vB7MAhKk8KfPzvRbSi1f" name="Page-1">
    <mxGraphModel dx="769" dy="665" grid="1" gridSize="10" guides="1" tooltips="1" connect="1" arrows="1" fold="1" page="1" pageScale="1" pageWidth="850" pageHeight="1100" math="0" shadow="0">
      <root>
        <mxCell id="0" />
        <mxCell id="1" parent="0" />
        <mxCell id="suaXxGD8esU_ArbBz12s-23" value="Label" style="verticalLabelPosition=bottom;verticalAlign=top;html=1;shape=mxgraph.basic.donut;dx=10;strokeColor=none;fillColor=#B1DDF0;fontSize=12;fontColor=#10739E;align=center;fontStyle=1;" parent="1" vertex="1">
          <mxGeometry x="150" y="284" width="100" height="100" as="geometry" />
        </mxCell>
        <mxCell id="suaXxGD8esU_ArbBz12s-24" value="" style="verticalLabelPosition=middle;verticalAlign=middle;html=1;shape=mxgraph.basic.partConcEllipse;startAngle=0;endAngle=0.65;arcWidth=0.2;strokeColor=none;fillColor=#10739E;fontSize=22;fontColor=#10739E;align=center;fontStyle=1" parent="suaXxGD8esU_ArbBz12s-23" vertex="1">
          <mxGeometry width="100" height="100" as="geometry" />
        </mxCell>
        <mxCell id="suaXxGD8esU_ArbBz12s-48" value="&lt;div style=&quot;font-size: 9px&quot;&gt;&lt;font style=&quot;font-size: 9px&quot;&gt;Building Codes&lt;/font&gt;&lt;/div&gt;&lt;div style=&quot;font-size: 9px&quot;&gt;&lt;font style=&quot;font-size: 9px&quot;&gt;Local Ordinances&lt;/font&gt;&lt;/div&gt;&lt;div style=&quot;font-size: 9px&quot;&gt;&lt;font style=&quot;font-size: 9px&quot;&gt;Property Relocation&lt;/font&gt;&lt;/div&gt;&lt;div style=&quot;font-size: 9px&quot;&gt;&lt;br&gt;&lt;/div&gt;" style="text;html=1;strokeColor=none;fillColor=none;align=center;verticalAlign=middle;whiteSpace=wrap;rounded=0;fontSize=10;" parent="suaXxGD8esU_ArbBz12s-23" vertex="1">
          <mxGeometry y="25" width="100" height="50" as="geometry" />
        </mxCell>
        <mxCell id="suaXxGD8esU_ArbBz12s-25" value="Label" style="verticalLabelPosition=bottom;verticalAlign=top;html=1;shape=mxgraph.basic.donut;dx=10;strokeColor=none;fillColor=#F8C382;fontSize=12;fontColor=#F2931E;align=center;fontStyle=1;" parent="1" vertex="1">
          <mxGeometry x="260" y="283" width="100" height="100" as="geometry" />
        </mxCell>
        <mxCell id="suaXxGD8esU_ArbBz12s-26" value="" style="verticalLabelPosition=middle;verticalAlign=middle;html=1;shape=mxgraph.basic.partConcEllipse;startAngle=0;endAngle=0.4;arcWidth=0.2;strokeColor=none;fillColor=#F2931E;fontSize=22;fontColor=#F2931E;align=center;fontStyle=1" parent="suaXxGD8esU_ArbBz12s-25" vertex="1">
          <mxGeometry width="100" height="100" as="geometry" />
        </mxCell>
        <mxCell id="suaXxGD8esU_ArbBz12s-49" value="&lt;div&gt;Parks&lt;/div&gt;&lt;div&gt;Reforestation&lt;/div&gt;&lt;div&gt;Wetlands&amp;nbsp;&amp;nbsp;&lt;/div&gt;&lt;div&gt;Erosion Control&lt;/div&gt;&lt;div&gt;&lt;br&gt;&lt;/div&gt;" style="text;html=1;strokeColor=none;fillColor=none;align=center;verticalAlign=middle;whiteSpace=wrap;rounded=0;fontSize=9;" parent="suaXxGD8esU_ArbBz12s-25" vertex="1">
          <mxGeometry x="10" y="35" width="80" height="30" as="geometry" />
        </mxCell>
        <mxCell id="suaXxGD8esU_ArbBz12s-27" value="Label" style="verticalLabelPosition=bottom;verticalAlign=top;html=1;shape=mxgraph.basic.donut;dx=10;strokeColor=none;fillColor=#F08E81;fontSize=12;fontColor=#AE4132;align=center;fontStyle=1;" parent="1" vertex="1">
          <mxGeometry x="371" y="284" width="100" height="100" as="geometry" />
        </mxCell>
        <mxCell id="suaXxGD8esU_ArbBz12s-28" value="" style="verticalLabelPosition=middle;verticalAlign=middle;html=1;shape=mxgraph.basic.partConcEllipse;startAngle=0;endAngle=0.25;arcWidth=0.2;strokeColor=none;fillColor=#AE4132;fontSize=22;fontColor=#AE4132;align=center;fontStyle=1" parent="suaXxGD8esU_ArbBz12s-27" vertex="1">
          <mxGeometry width="100" height="100" as="geometry" />
        </mxCell>
        <mxCell id="suaXxGD8esU_ArbBz12s-50" value="&lt;div&gt;Seawalls&lt;/div&gt;&lt;div&gt;Dams&lt;/div&gt;&lt;div&gt;Levees&lt;/div&gt;&lt;div&gt;Elevated Roads&lt;/div&gt;&lt;div&gt;Storm Sewers&lt;/div&gt;&lt;div&gt;&lt;br&gt;&lt;/div&gt;" style="text;html=1;strokeColor=none;fillColor=none;align=center;verticalAlign=middle;whiteSpace=wrap;rounded=0;fontSize=9;" parent="suaXxGD8esU_ArbBz12s-27" vertex="1">
          <mxGeometry x="10" y="40" width="80" height="30" as="geometry" />
        </mxCell>
        <mxCell id="suaXxGD8esU_ArbBz12s-29" value="Label" style="verticalLabelPosition=bottom;verticalAlign=top;html=1;shape=mxgraph.basic.donut;dx=10;strokeColor=none;fillColor=#5D7F99;fontSize=12;fontColor=#23445D;align=center;fontStyle=1;" parent="1" vertex="1">
          <mxGeometry x="480" y="283" width="100" height="100" as="geometry" />
        </mxCell>
        <mxCell id="suaXxGD8esU_ArbBz12s-30" value="" style="verticalLabelPosition=middle;verticalAlign=middle;html=1;shape=mxgraph.basic.partConcEllipse;startAngle=0;endAngle=0.6;arcWidth=0.2;strokeColor=none;fillColor=#23445D;fontSize=22;fontColor=#23445D;align=center;fontStyle=1" parent="suaXxGD8esU_ArbBz12s-29" vertex="1">
          <mxGeometry width="100" height="100" as="geometry" />
        </mxCell>
        <mxCell id="suaXxGD8esU_ArbBz12s-52" value="Facility Location&lt;br&gt;Response Planning&lt;br&gt;Buiding Codes&lt;br&gt;&lt;br&gt;&lt;br&gt;&amp;nbsp;" style="text;html=1;strokeColor=none;fillColor=none;align=center;verticalAlign=middle;whiteSpace=wrap;rounded=0;fontSize=9;" parent="suaXxGD8esU_ArbBz12s-29" vertex="1">
          <mxGeometry x="8.75" y="47" width="82.5" height="40" as="geometry" />
        </mxCell>
        <mxCell id="suaXxGD8esU_ArbBz12s-31" value="Label" style="verticalLabelPosition=bottom;verticalAlign=top;html=1;shape=mxgraph.basic.donut;dx=10;strokeColor=none;fillColor=#61C6CE;fontSize=12;fontColor=#12AAB5;align=center;fontStyle=1;" parent="1" vertex="1">
          <mxGeometry x="590" y="283" width="105" height="100" as="geometry" />
        </mxCell>
        <mxCell id="suaXxGD8esU_ArbBz12s-32" value="" style="verticalLabelPosition=middle;verticalAlign=middle;html=1;shape=mxgraph.basic.partConcEllipse;startAngle=0;endAngle=0.8;arcWidth=0.2;strokeColor=none;fillColor=#12AAB5;fontSize=22;fontColor=#12AAB5;align=center;fontStyle=1" parent="suaXxGD8esU_ArbBz12s-31" vertex="1">
          <mxGeometry width="100" height="100" as="geometry" />
        </mxCell>
        <mxCell id="suaXxGD8esU_ArbBz12s-51" value="&lt;div&gt;Signage&lt;/div&gt;&lt;div&gt;Websites&lt;/div&gt;&lt;div&gt;Training Programs&lt;/div&gt;&lt;div&gt;Emergency Drills&lt;/div&gt;&lt;div&gt;Presentations&lt;/div&gt;&lt;div&gt;&lt;br&gt;&lt;/div&gt;" style="text;html=1;strokeColor=none;fillColor=none;align=center;verticalAlign=middle;whiteSpace=wrap;rounded=0;fontSize=9;" parent="suaXxGD8esU_ArbBz12s-31" vertex="1">
          <mxGeometry x="-5" y="32" width="110" height="40" as="geometry" />
        </mxCell>
        <mxCell id="suaXxGD8esU_ArbBz12s-38" value="&lt;div style=&quot;font-size: 12px;&quot;&gt;Prevention&lt;/div&gt;" style="verticalLabelPosition=middle;verticalAlign=middle;html=1;html=1;fillColor=none;strokeColor=none;fontSize=12;fontColor=#10739E;align=center;fontStyle=1;" parent="1" vertex="1">
          <mxGeometry x="150" y="250" width="100" height="30" as="geometry" />
        </mxCell>
        <mxCell id="suaXxGD8esU_ArbBz12s-39" value="&lt;div style=&quot;font-size: 12px;&quot;&gt;Natural Resource&amp;nbsp;&lt;/div&gt;&lt;div style=&quot;font-size: 12px;&quot;&gt;Protection&lt;/div&gt;" style="verticalLabelPosition=middle;verticalAlign=middle;html=1;html=1;fillColor=none;strokeColor=none;fontSize=12;fontColor=#F2931E;align=center;fontStyle=1;" parent="1" vertex="1">
          <mxGeometry x="260" y="248" width="100" height="30" as="geometry" />
        </mxCell>
        <mxCell id="suaXxGD8esU_ArbBz12s-40" value="Structural &lt;br style=&quot;font-size: 12px;&quot;&gt;Projects" style="verticalLabelPosition=middle;verticalAlign=middle;html=1;html=1;fillColor=none;strokeColor=none;fontSize=12;fontColor=#AE4132;align=center;fontStyle=1;" parent="1" vertex="1">
          <mxGeometry x="370" y="247" width="100" height="30" as="geometry" />
        </mxCell>
        <mxCell id="suaXxGD8esU_ArbBz12s-41" value="&lt;div style=&quot;font-size: 12px;&quot;&gt;&lt;font style=&quot;font-size: 12px;&quot;&gt;Critical&amp;nbsp;&lt;/font&gt;&lt;span style=&quot;font-size: 12px;&quot;&gt;Facilities&amp;nbsp;&lt;/span&gt;&lt;/div&gt;&lt;div style=&quot;font-size: 12px;&quot;&gt;&lt;font style=&quot;font-size: 12px;&quot;&gt;Protection&lt;/font&gt;&lt;/div&gt;" style="verticalLabelPosition=middle;verticalAlign=middle;html=1;html=1;fillColor=none;strokeColor=none;fontSize=12;fontColor=#23445D;align=center;fontStyle=1;" parent="1" vertex="1">
          <mxGeometry x="480" y="250" width="100" height="30" as="geometry" />
        </mxCell>
        <mxCell id="suaXxGD8esU_ArbBz12s-42" value="&lt;div style=&quot;font-size: 12px;&quot;&gt;Public&amp;nbsp;&lt;/div&gt;&lt;div style=&quot;font-size: 12px;&quot;&gt;Education&lt;/div&gt;" style="verticalLabelPosition=middle;verticalAlign=middle;html=1;html=1;fillColor=none;strokeColor=none;fontSize=12;fontColor=#12AAB5;align=center;fontStyle=1;" parent="1" vertex="1">
          <mxGeometry x="595" y="250" width="100" height="30" as="geometry" />
        </mxCell>
        <mxCell id="suaXxGD8esU_ArbBz12s-43" value="Removal or reduction of risk for future hazard" style="verticalLabelPosition=middle;verticalAlign=middle;html=1;html=1;fillColor=#EEEEEE;strokeColor=none;fontSize=10;align=center;fontStyle=0;rounded=1;whiteSpace=wrap;arcSize=8;spacing=5;" parent="1" vertex="1">
          <mxGeometry x="150" y="390" width="100" height="90" as="geometry" />
        </mxCell>
        <mxCell id="suaXxGD8esU_ArbBz12s-44" value="&lt;div&gt;Protection, restoration, and&amp;nbsp; preservation of ecosystems to reduce hazard impacts.&lt;/div&gt;" style="verticalLabelPosition=middle;verticalAlign=middle;html=1;html=1;fillColor=#EEEEEE;strokeColor=none;fontSize=10;align=center;fontStyle=0;rounded=1;whiteSpace=wrap;arcSize=8;spacing=5;" parent="1" vertex="1">
          <mxGeometry x="260" y="390" width="100" height="90" as="geometry" />
        </mxCell>
        <mxCell id="suaXxGD8esU_ArbBz12s-45" value="&lt;div&gt;Uses of manmade defenses to protect communities from hazards.&amp;nbsp;&lt;/div&gt;&lt;div&gt;&lt;br&gt;&lt;/div&gt;" style="verticalLabelPosition=middle;verticalAlign=middle;html=1;html=1;fillColor=#EEEEEE;strokeColor=none;fontSize=10;align=center;fontStyle=0;rounded=1;whiteSpace=wrap;arcSize=8;spacing=5;" parent="1" vertex="1">
          <mxGeometry x="370" y="390" width="100" height="90" as="geometry" />
        </mxCell>
        <mxCell id="suaXxGD8esU_ArbBz12s-46" value="&lt;div&gt;Mitigation that prioritizes protecting crucial services during an emergency.&lt;/div&gt;" style="verticalLabelPosition=middle;verticalAlign=middle;html=1;html=1;fillColor=#EEEEEE;strokeColor=none;fontSize=10;align=center;fontStyle=0;rounded=1;whiteSpace=wrap;arcSize=8;spacing=5;" parent="1" vertex="1">
          <mxGeometry x="480" y="390" width="100" height="90" as="geometry" />
        </mxCell>
        <mxCell id="suaXxGD8esU_ArbBz12s-47" value="&lt;div&gt;Outreach and awareness activities to remind and educate communities about local hazards.&amp;nbsp;&lt;/div&gt;" style="verticalLabelPosition=middle;verticalAlign=middle;html=1;html=1;fillColor=#EEEEEE;strokeColor=none;fontSize=10;align=center;fontStyle=0;rounded=1;whiteSpace=wrap;arcSize=8;spacing=5;" parent="1" vertex="1">
          <mxGeometry x="590" y="390" width="100" height="90" as="geometry" />
        </mxCell>
        <mxCell id="suaXxGD8esU_ArbBz12s-56" value="&lt;font color=&quot;#1a1a1a&quot;&gt;Hazard Mitigation Strategies&amp;nbsp;&lt;/font&gt;" style="verticalLabelPosition=middle;verticalAlign=middle;html=1;html=1;fillColor=none;strokeColor=none;fontSize=12;fontColor=#AE4132;align=center;fontStyle=1;" parent="1" vertex="1">
          <mxGeometry x="371" y="210" width="100" height="30" as="geometry" />
        </mxCell>
      </root>
    </mxGraphModel>
  </diagram>
</mxfile>
